<svg xmlns="http://www.w3.org/2000/svg" width="8333" height="5000" viewBox="0 0 8333 5000"><g id="Layer-1"><linearGradient id="linearGradient1" x1="5851.487" x2="2481.846" y1="4591.667" y2="4591.667" gradientUnits="userSpaceOnUse"><stop offset="0" stop-color="#fff" stop-opacity="1"/><stop offset=".037" stop-color="#e7eff0" stop-opacity="1"/><stop offset=".284" stop-color="#3b7982" stop-opacity="1"/><stop offset="1" stop-color="#fff" stop-opacity="1"/></linearGradient><path id="Path" fill="none" stroke="url(#linearGradient1)" stroke-width="354.542" d="M 2659.117188 2500 C 2659.117188 3650.593262 3334.070557 4583.333496 4166.666504 4583.333496 C 4999.263184 4583.333496 5674.216309 3650.593262 5674.216309 2500 C 5674.216309 1349.406494 4999.263184 416.666992 4166.666504 416.666992 C 3334.070557 416.666992 2659.117188 1349.406494 2659.117188 2500 Z"/><linearGradient id="linearGradient2" x1="2808.707" x2="5524.626" y1="750.195" y2="750.195" gradientUnits="userSpaceOnUse"><stop offset="0" stop-color="#fff" stop-opacity="1"/><stop offset=".037" stop-color="#e7eff0" stop-opacity="1"/><stop offset=".284" stop-color="#3b7982" stop-opacity="1"/><stop offset="1" stop-color="#fff" stop-opacity="1"/></linearGradient><path id="path1" fill="none" stroke="url(#linearGradient2)" stroke-width="354.542" d="M 5347.35498 2500 C 5347.35498 1538.212158 4818.742676 758.528809 4166.666504 758.528809 C 3514.590088 758.528809 2985.97876 1538.212158 2985.97876 2500 C 2985.97876 3461.788086 3514.590088 4241.471191 4166.666504 4241.471191 C 4818.742676 4241.471191 5347.35498 3461.788086 5347.35498 2500 Z"/><linearGradient id="linearGradient3" x1="6671.598" x2="3753.402" y1="3469.026" y2="5153.847" gradientUnits="userSpaceOnUse"><stop offset="0" stop-color="#fff" stop-opacity="1"/><stop offset=".037" stop-color="#e7eff0" stop-opacity="1"/><stop offset=".284" stop-color="#3b7982" stop-opacity="1"/><stop offset="1" stop-color="#fff" stop-opacity="1"/></linearGradient><path id="path2" fill="none" stroke="url(#linearGradient3)" stroke-width="354.542" d="M 2861.09082 3253.774902 C 3436.386719 4250.217773 4487.283203 4720.518066 5208.333008 4304.219727 C 5929.382813 3887.921387 6047.540039 2742.668213 5472.242676 1746.225098 C 4896.945801 749.782227 3846.049561 279.481934 3124.999756 695.780762 C 2403.949707 1112.078857 2285.793701 2257.332031 2861.09082 3253.774902 Z"/><linearGradient id="linearGradient4" x1="2115.737" x2="4467.792" y1="1663.604" y2="305.645" gradientUnits="userSpaceOnUse"><stop offset="0" stop-color="#fff" stop-opacity="1"/><stop offset=".037" stop-color="#e7eff0" stop-opacity="1"/><stop offset=".284" stop-color="#3b7982" stop-opacity="1"/><stop offset="1" stop-color="#fff" stop-opacity="1"/></linearGradient><path id="path3" fill="none" stroke="url(#linearGradient4)" stroke-width="354.542" d="M 5189.172852 1909.655762 C 4708.279297 1076.7229 3860.645264 665.803711 3295.930664 991.841797 C 2731.217041 1317.879883 2663.266602 2257.411377 3144.160645 3090.344238 C 3625.054688 3923.276855 4472.6875 4334.196289 5037.401855 4008.158203 C 5602.116699 3682.120361 5670.066895 2742.588623 5189.172852 1909.655762 Z"/><linearGradient id="linearGradient5" x1="6820.514" x2="5135.693" y1="2086.736" y2="5004.931" gradientUnits="userSpaceOnUse"><stop offset="0" stop-color="#fff" stop-opacity="1"/><stop offset=".037" stop-color="#e7eff0" stop-opacity="1"/><stop offset=".284" stop-color="#3b7982" stop-opacity="1"/><stop offset="1" stop-color="#fff" stop-opacity="1"/></linearGradient><path id="path4" fill="none" stroke="url(#linearGradient5)" stroke-width="354.542" d="M 3412.892334 3805.576172 C 4409.334961 4380.873047 5554.587402 4262.716309 5970.885742 3541.666748 C 6387.184082 2820.616699 5916.883789 1769.720459 4920.441406 1194.423584 C 3923.998779 619.126953 2778.745117 737.283203 2362.446777 1458.333496 C 1946.148315 2179.383301 2416.44873 3230.279785 3412.892334 3805.576172 Z"/><linearGradient id="linearGradient6" x1="1972.312" x2="3330.271" y1="2801.125" y2="449.07" gradientUnits="userSpaceOnUse"><stop offset="0" stop-color="#fff" stop-opacity="1"/><stop offset=".037" stop-color="#e7eff0" stop-opacity="1"/><stop offset=".284" stop-color="#3b7982" stop-opacity="1"/><stop offset="1" stop-color="#fff" stop-opacity="1"/></linearGradient><path id="path5" fill="none" stroke="url(#linearGradient6)" stroke-width="354.542" d="M 4757.010742 1477.493896 C 3924.078125 996.599854 2984.546631 1064.549805 2658.508057 1629.264404 C 2332.470459 2193.979004 2743.389648 3041.612061 3576.322021 3522.506104 C 4409.255859 4003.399902 5348.787109 3935.450195 5674.824707 3370.735352 C 6000.863281 2806.02124 5589.942871 1958.387939 4757.010742 1477.493896 Z"/><linearGradient id="linearGradient7" x1="6258.333" x2="6258.333" y1="815.179" y2="4184.821" gradientUnits="userSpaceOnUse"><stop offset="0" stop-color="#fff" stop-opacity="1"/><stop offset=".037" stop-color="#e7eff0" stop-opacity="1"/><stop offset=".284" stop-color="#3b7982" stop-opacity="1"/><stop offset="1" stop-color="#fff" stop-opacity="1"/></linearGradient><path id="path6" fill="none" stroke="url(#linearGradient7)" stroke-width="354.542" d="M 4166.666504 4007.549561 C 5317.260254 4007.549561 6249.999512 3332.59668 6249.999512 2500 C 6249.999512 1667.40332 5317.260254 992.450439 4166.666504 992.450439 C 3016.073242 992.450439 2083.333008 1667.40332 2083.333008 2500 C 2083.333008 3332.59668 3016.073242 4007.549561 4166.666504 4007.549561 Z"/><linearGradient id="linearGradient8" x1="2416.862" x2="2416.862" y1="3857.959" y2="1142.041" gradientUnits="userSpaceOnUse"><stop offset="0" stop-color="#fff" stop-opacity="1"/><stop offset=".037" stop-color="#e7eff0" stop-opacity="1"/><stop offset=".284" stop-color="#3b7982" stop-opacity="1"/><stop offset="1" stop-color="#fff" stop-opacity="1"/></linearGradient><path id="path7" fill="none" stroke="url(#linearGradient8)" stroke-width="354.542" d="M 4166.666504 1319.311523 C 3204.878418 1319.311523 2425.195068 1847.923828 2425.195068 2500 C 2425.195068 3152.076172 3204.878418 3680.688477 4166.666504 3680.688477 C 5128.454102 3680.688477 5908.137695 3152.076172 5908.137695 2500 C 5908.137695 1847.923828 5128.454102 1319.311523 4166.666504 1319.311523 Z"/><linearGradient id="linearGradient9" x1="5135.693" x2="6820.514" y1="-4.931" y2="2913.264" gradientUnits="userSpaceOnUse"><stop offset="0" stop-color="#fff" stop-opacity="1"/><stop offset=".037" stop-color="#e7eff0" stop-opacity="1"/><stop offset=".284" stop-color="#3b7982" stop-opacity="1"/><stop offset="1" stop-color="#fff" stop-opacity="1"/></linearGradient><path id="path8" fill="none" stroke="url(#linearGradient9)" stroke-width="354.542" d="M 4920.441406 3805.576172 C 5916.883789 3230.279785 6387.184082 2179.383301 5970.885742 1458.333496 C 5554.587402 737.283203 4409.334961 619.126953 3412.892334 1194.423584 C 2416.44873 1769.720459 1946.148315 2820.616699 2362.446777 3541.666748 C 2778.745117 4262.716309 3923.998779 4380.873047 4920.441406 3805.576172 Z"/><linearGradient id="linearGradient10" x1="3330.271" x2="1972.312" y1="4550.93" y2="2198.875" gradientUnits="userSpaceOnUse"><stop offset="0" stop-color="#fff" stop-opacity="1"/><stop offset=".037" stop-color="#e7eff0" stop-opacity="1"/><stop offset=".284" stop-color="#3b7982" stop-opacity="1"/><stop offset="1" stop-color="#fff" stop-opacity="1"/></linearGradient><path id="path9" fill="none" stroke="url(#linearGradient10)" stroke-width="354.542" d="M 3576.322021 1477.493896 C 2743.389648 1958.387939 2332.470459 2806.02124 2658.508057 3370.735352 C 2984.546631 3935.450195 3924.078125 4003.399902 4757.010742 3522.506104 C 5589.942871 3041.612061 6000.863281 2193.979004 5674.824707 1629.264404 C 5348.787109 1064.549805 4409.255859 996.599854 3576.322021 1477.493896 Z"/><linearGradient id="linearGradient11" x1="4467.792" x2="2115.737" y1="4694.355" y2="3336.396" gradientUnits="userSpaceOnUse"><stop offset="0" stop-color="#fff" stop-opacity="1"/><stop offset=".037" stop-color="#e7eff0" stop-opacity="1"/><stop offset=".284" stop-color="#3b7982" stop-opacity="1"/><stop offset="1" stop-color="#fff" stop-opacity="1"/></linearGradient><path id="path10" fill="none" stroke="url(#linearGradient11)" stroke-width="354.542" d="M 3144.160645 1909.655762 C 2663.266602 2742.588623 2731.217041 3682.120361 3295.930664 4008.158203 C 3860.645264 4334.196289 4708.279297 3923.276855 5189.172852 3090.344238 C 5670.066895 2257.411377 5602.116699 1317.879883 5037.401855 991.841797 C 4472.6875 665.803711 3625.054688 1076.7229 3144.160645 1909.655762 Z"/><linearGradient id="linearGradient12" x1="3753.402" x2="6671.598" y1="-153.847" y2="1530.974" gradientUnits="userSpaceOnUse"><stop offset="0" stop-color="#fff" stop-opacity="1"/><stop offset=".037" stop-color="#e7eff0" stop-opacity="1"/><stop offset=".284" stop-color="#3b7982" stop-opacity="1"/><stop offset="1" stop-color="#fff" stop-opacity="1"/></linearGradient><path id="path11" fill="none" stroke="url(#linearGradient12)" stroke-width="354.542" d="M 5472.242676 3253.774902 C 6047.540039 2257.332031 5929.382813 1112.078857 5208.333008 695.780762 C 4487.283203 279.481934 3436.386719 749.782227 2861.09082 1746.225098 C 2285.793701 2742.668213 2403.949707 3887.921387 3124.999756 4304.219727 C 3846.049561 4720.518066 4896.945801 4250.217773 5472.242676 3253.774902 Z"/></g></svg>