<svg xmlns="http://www.w3.org/2000/svg" width="600" height="600" pointer-events="none" version="1.1" viewBox="0 0 240 240"><style type="text/css">.st0,.st1{fill-rule:evenodd;clip-rule:evenodd;fill:#010101}.st1{fill:#fff}</style><path d="M0,120C0,53.8,53.7,0,120,0c66.3,0,120,53.8,120,120c0,66.3-53.7,120-120,120C53.7,240,0,186.3,0,120z" class="st0"/><path d="M102.7,144.3c6.3,14.8,20.1,19.4,38.7,11.6c18.5-7.8,20-18.7,16.9-25.8c-2-4.8-6.5-7.4-12.5-9.5	c4.8,11.1-1.8,16.1-7.7,18.7c-8.8,3.7-12.3,0.3-15.6-7.5l-9.1-21.4l12.8-5.4c11.1-4.6,4.8-20,4.8-20l-24.1,10.2l-1.8-4	c-4.8-11.2-25.4-0.9-25.4-0.9L102.7,144.3z" class="st1"/></svg>