<svg xmlns="http://www.w3.org/2000/svg" xmlns:xlink="http://www.w3.org/1999/xlink" width="106" height="72" version="1.1" viewBox="0 0 106 72"><title>Group</title><desc>Created with Sketch.</desc><defs><linearGradient id="linearGradient-1" x1="33.219%" x2="75.118%" y1="78.172%" y2="50%"><stop offset="0%" stop-color="#FF0065"/><stop offset="100%" stop-color="#DD61FC"/></linearGradient><linearGradient id="linearGradient-2" x1="50%" x2="92.773%" y1="45.2%" y2="50%"><stop offset="0%" stop-color="#B10151"/><stop offset="100%" stop-color="#750126"/></linearGradient><linearGradient id="linearGradient-3" x1="33.694%" x2="66.678%" y1="80.184%" y2="54.581%"><stop offset="0%" stop-color="#80F3FD"/><stop offset="100%" stop-color="#00D0FF"/></linearGradient><linearGradient id="linearGradient-4" x1="32.332%" x2="76.803%" y1="50%" y2="61.076%"><stop offset="0%" stop-color="#0080BB"/><stop offset="100%" stop-color="#004985"/></linearGradient></defs><g id="txpipe" fill="none" fill-rule="evenodd" stroke="none" stroke-width="1"><g id="opcion-2" transform="translate(-26.000000, -182.000000)"><g id="Group" transform="translate(26.000000, 182.000000)"><g id="arrow-right" transform="translate(55.000000, 0.000000)"><path id="Path" fill="url(#linearGradient-1)" d="M12.931255,1.06300976 C19.6532,-1.58840782 23.9828711,0.347678035 34.8337542,11.1278124 L35.575255,11.8680098 C47.643255,23.9680098 50.164255,27.7090098 50.712255,34.3270098 L50.7487467,34.8198362 C51.2241135,42.1498465 48.4140316,46.7475417 36.2443847,58.748231 L34.3391348,60.6162506 C23.3643679,71.3203072 20.6380314,72.8424624 13.361863,71.0100098 C10.2964784,70.2378944 7.7489145,68.3929338 4.79359296,65.3664738 L4.4369379,64.9976204 L0.043,59.952 L23.358,36.3386898 L10.5146958,23.1605006 C4.88994482,17.4255525 0.29909375,12.9742753 0.017,13 L5.32907052e-14,13.004 L5.32907052e-14,12.94 L0.0135729907,12.9552946 L5.29725496,7.10100976 C8.12025496,4.32300976 11.556255,1.60500976 12.931255,1.06300976 Z"/><path id="Path" fill="url(#linearGradient-2)" d="M12.931255,1.06300976 C19.6532,-1.58840782 23.9828711,0.347678035 34.8337542,11.1278124 L35.575255,11.8680098 C39.0943119,17.0643461 35.0218936,25.2212395 23.358,36.3386898 L10.5146958,23.1605006 C4.88994482,17.4255525 0.29909375,12.9742753 0.017,13 L4.26325641e-14,13.004 L4.26325641e-14,12.94 L0.0135729907,12.9552946 L5.29725496,7.10100976 C8.12025496,4.32300976 11.556255,1.60500976 12.931255,1.06300976 Z"/></g><g id="arrow-right" transform="translate(25.500000, 36.000000) scale(-1, -1) translate(-25.500000, -36.000000)"><path id="Path" fill="url(#linearGradient-3)" d="M12.931255,1.06300976 C19.6532,-1.58840782 23.9828711,0.347678035 34.8337542,11.1278124 L35.575255,11.8680098 C47.643255,23.9680098 50.164255,27.7090098 50.712255,34.3270098 L50.7487467,34.8198362 C51.2241135,42.1498465 48.4140316,46.7475417 36.2443847,58.748231 L34.3391348,60.6162506 C23.3643679,71.3203072 20.6380314,72.8424624 13.361863,71.0100098 C10.2964784,70.2378944 7.7489145,68.3929338 4.79359296,65.3664738 L4.4369379,64.9976204 L0.043,59.952 L23.358,36.3386898 L10.5146958,23.1605006 C4.88994482,17.4255525 0.29909375,12.9742753 0.017,13 L5.32907052e-14,13.004 L5.32907052e-14,12.94 L0.0135729907,12.9552946 L5.29725496,7.10100976 C8.12025496,4.32300976 11.556255,1.60500976 12.931255,1.06300976 Z"/><path id="Path" fill="url(#linearGradient-4)" d="M12.931255,1.06300976 C19.6532,-1.58840782 23.9828711,0.347678035 34.8337542,11.1278124 L35.575255,11.8680098 C39.0943119,17.0643461 35.0218936,25.2212395 23.358,36.3386898 L10.5146958,23.1605006 C4.88994482,17.4255525 0.29909375,12.9742753 0.017,13 L4.26325641e-14,13.004 L4.26325641e-14,12.94 L0.0135729907,12.9552946 L5.29725496,7.10100976 C8.12025496,4.32300976 11.556255,1.60500976 12.931255,1.06300976 Z"/></g></g></g></g></svg>