<svg xmlns="http://www.w3.org/2000/svg" xmlns:xlink="http://www.w3.org/1999/xlink" x="0" y="0" version="1.1" viewBox="0 0 120 110" style="enable-background:new 0 0 120 110" xml:space="preserve"><style type="text/css">.st0{fill:#ff5553}.st2{fill:none;stroke:#0033ad;stroke-width:5;stroke-linecap:round;stroke-linejoin:round;stroke-miterlimit:10}</style><switch><g><g id="Finance"><g><path d="M16.39,13.75c-1.38-0.08-2.56,0.98-2.64,2.35c-0.08,1.38,0.98,2.56,2.35,2.64c0.05,0,0.1,0,0.14,0 c1.32,0,2.42-1.04,2.49-2.36c0.04-0.67-0.19-1.31-0.63-1.81C17.67,14.09,17.06,13.79,16.39,13.75z" class="st0"/><path d="M26.39,13.75c-1.38-0.08-2.56,0.98-2.64,2.35c-0.08,1.38,0.98,2.56,2.35,2.64c0.05,0,0.1,0,0.14,0 c1.32,0,2.42-1.04,2.49-2.36c0.04-0.67-0.19-1.31-0.63-1.81C27.67,14.09,27.06,13.79,26.39,13.75z" class="st0"/><path d="M36.39,13.75c-1.38-0.08-2.56,0.98-2.64,2.35c-0.08,1.38,0.98,2.56,2.35,2.64c0.05,0,0.1,0,0.14,0 c1.32,0,2.42-1.04,2.49-2.36c0.04-0.67-0.19-1.31-0.63-1.81C37.67,14.09,37.06,13.79,36.39,13.75z" class="st0"/><path d="M46.39,13.75c-1.38-0.08-2.56,0.98-2.64,2.35c-0.08,1.38,0.98,2.56,2.35,2.64c0.05,0,0.1,0,0.14,0 c1.32,0,2.42-1.04,2.49-2.36c0.04-0.67-0.19-1.31-0.63-1.81C47.67,14.09,47.06,13.79,46.39,13.75z" class="st0"/><path d="M56.39,13.75c-1.38-0.08-2.56,0.98-2.64,2.35c-0.08,1.38,0.98,2.56,2.35,2.64c0.05,0,0.1,0,0.14,0 c1.32,0,2.42-1.04,2.49-2.36c0.04-0.67-0.19-1.31-0.63-1.81C57.67,14.09,57.06,13.79,56.39,13.75z" class="st0"/><path d="M66.39,13.75c-1.38-0.08-2.56,0.98-2.64,2.35c-0.08,1.38,0.98,2.56,2.35,2.64c0.05,0,0.1,0,0.14,0 c1.32,0,2.42-1.04,2.49-2.36c0.04-0.67-0.19-1.31-0.63-1.81C67.67,14.09,67.06,13.79,66.39,13.75z" class="st0"/><path d="M76.39,13.75c-1.38-0.08-2.56,0.98-2.64,2.35c-0.08,1.38,0.98,2.56,2.35,2.64c0.05,0,0.1,0,0.14,0 c1.32,0,2.42-1.04,2.49-2.36c0.04-0.67-0.19-1.31-0.63-1.81C77.67,14.09,77.06,13.79,76.39,13.75z" class="st0"/><path d="M86.39,13.75c-1.38-0.08-2.56,0.98-2.64,2.35c-0.08,1.38,0.98,2.56,2.35,2.64c0.05,0,0.1,0,0.14,0 c1.32,0,2.42-1.04,2.49-2.36c0.04-0.67-0.19-1.31-0.63-1.81C87.67,14.09,87.06,13.79,86.39,13.75z" class="st0"/><path d="M16.39,23.75c-1.38-0.08-2.56,0.98-2.64,2.35c-0.08,1.38,0.98,2.56,2.35,2.64c0.05,0,0.1,0,0.14,0 c1.32,0,2.42-1.04,2.49-2.36c0.04-0.67-0.19-1.31-0.63-1.81C17.67,24.09,17.06,23.79,16.39,23.75z" class="st0"/><path d="M26.39,23.75c-1.38-0.08-2.56,0.98-2.64,2.35c-0.08,1.38,0.98,2.56,2.35,2.64c0.05,0,0.1,0,0.14,0 c1.32,0,2.42-1.04,2.49-2.36c0.04-0.67-0.19-1.31-0.63-1.81C27.67,24.09,27.06,23.79,26.39,23.75z" class="st0"/><path d="M36.39,23.75c-1.38-0.08-2.56,0.98-2.64,2.35c-0.08,1.38,0.98,2.56,2.35,2.64c0.05,0,0.1,0,0.14,0 c1.32,0,2.42-1.04,2.49-2.36c0.04-0.67-0.19-1.31-0.63-1.81C37.67,24.09,37.06,23.79,36.39,23.75z" class="st0"/><path d="M46.39,23.75c-1.38-0.08-2.56,0.98-2.64,2.35c-0.08,1.38,0.98,2.56,2.35,2.64c0.05,0,0.1,0,0.14,0 c1.32,0,2.42-1.04,2.49-2.36c0.04-0.67-0.19-1.31-0.63-1.81C47.67,24.09,47.06,23.79,46.39,23.75z" class="st0"/><path d="M56.39,23.75c-1.38-0.08-2.56,0.98-2.64,2.35c-0.08,1.38,0.98,2.56,2.35,2.64c0.05,0,0.1,0,0.14,0 c1.32,0,2.42-1.04,2.49-2.36c0.04-0.67-0.19-1.31-0.63-1.81C57.67,24.09,57.06,23.79,56.39,23.75z" class="st0"/><path d="M66.39,23.75c-1.38-0.08-2.56,0.98-2.64,2.35c-0.08,1.38,0.98,2.56,2.35,2.64c0.05,0,0.1,0,0.14,0 c1.32,0,2.42-1.04,2.49-2.36c0.04-0.67-0.19-1.31-0.63-1.81C67.67,24.09,67.06,23.79,66.39,23.75z" class="st0"/><path d="M76.39,23.75c-1.38-0.08-2.56,0.98-2.64,2.35c-0.08,1.38,0.98,2.56,2.35,2.64c0.05,0,0.1,0,0.14,0 c1.32,0,2.42-1.04,2.49-2.36c0.04-0.67-0.19-1.31-0.63-1.81C77.67,24.09,77.06,23.79,76.39,23.75z" class="st0"/><path d="M86.39,23.75c-1.38-0.08-2.56,0.98-2.64,2.35c-0.08,1.38,0.98,2.56,2.35,2.64c0.05,0,0.1,0,0.14,0 c1.32,0,2.42-1.04,2.49-2.36c0.04-0.67-0.19-1.31-0.63-1.81C87.67,24.09,87.06,23.79,86.39,23.75z" class="st0"/><path d="M16.39,33.75c-1.38-0.08-2.56,0.98-2.64,2.35c-0.08,1.38,0.98,2.56,2.35,2.64c0.05,0,0.1,0,0.14,0 c1.32,0,2.42-1.04,2.49-2.36c0.04-0.67-0.19-1.31-0.63-1.81C17.67,34.09,17.06,33.79,16.39,33.75z" class="st0"/><path d="M26.39,33.75c-1.38-0.08-2.56,0.98-2.64,2.35c-0.08,1.38,0.98,2.56,2.35,2.64c0.05,0,0.1,0,0.14,0 c1.32,0,2.42-1.04,2.49-2.36c0.04-0.67-0.19-1.31-0.63-1.81C27.67,34.09,27.06,33.79,26.39,33.75z" class="st0"/><path d="M36.39,33.75c-1.38-0.08-2.56,0.98-2.64,2.35c-0.08,1.38,0.98,2.56,2.35,2.64c0.05,0,0.1,0,0.14,0 c1.32,0,2.42-1.04,2.49-2.36c0.04-0.67-0.19-1.31-0.63-1.81C37.67,34.09,37.06,33.79,36.39,33.75z" class="st0"/><path d="M46.39,33.75c-1.38-0.08-2.56,0.98-2.64,2.35c-0.08,1.38,0.98,2.56,2.35,2.64c0.05,0,0.1,0,0.14,0 c1.32,0,2.42-1.04,2.49-2.36c0.04-0.67-0.19-1.31-0.63-1.81C47.67,34.09,47.06,33.79,46.39,33.75z" class="st0"/><path d="M76.39,33.75c-1.38-0.08-2.56,0.98-2.64,2.35c-0.08,1.38,0.98,2.56,2.35,2.64c0.05,0,0.1,0,0.14,0 c1.32,0,2.42-1.04,2.49-2.36c0.04-0.67-0.19-1.31-0.63-1.81C77.67,34.09,77.06,33.79,76.39,33.75z" class="st0"/><path d="M16.39,43.75c-1.38-0.08-2.56,0.98-2.64,2.35c-0.08,1.38,0.98,2.56,2.35,2.64c0.05,0,0.1,0,0.14,0 c1.32,0,2.42-1.04,2.49-2.36c0.04-0.67-0.19-1.31-0.63-1.81C17.67,44.09,17.06,43.79,16.39,43.75z" class="st0"/><path d="M26.39,43.75c-1.38-0.08-2.56,0.98-2.64,2.35c-0.08,1.38,0.98,2.56,2.35,2.64c0.05,0,0.1,0,0.14,0 c1.32,0,2.42-1.04,2.49-2.36c0.04-0.67-0.19-1.31-0.63-1.81C27.67,44.09,27.06,43.79,26.39,43.75z" class="st0"/><path d="M86.39,43.75c-1.38-0.08-2.56,0.98-2.64,2.35c-0.08,1.38,0.98,2.56,2.35,2.64c0.05,0,0.1,0,0.14,0 c1.32,0,2.42-1.04,2.49-2.36c0.04-0.67-0.19-1.31-0.63-1.81C87.67,44.09,87.06,43.79,86.39,43.75z" class="st0"/><rect width="10" height="20" x="16.25" y="66.25" class="st2"/><rect width="10" height="30" x="36.25" y="56.25" class="st2"/><rect width="10" height="40" x="56.25" y="46.25" class="st2"/><rect width="10" height="30" x="76.25" y="56.25" class="st2"/><rect width="10" height="50" x="96.25" y="36.25" class="st2"/><line x1="106.25" x2="106.25" y1="26.25" y2="16.25" class="st2"/><polyline points="16.25 56.25 26.25 56.25 36.25 46.25 46.25 46.25 56.25 36.25 66.25 36.25 76.25 46.25 86.25 36.25 106.25 16.25 96.25 16.25" class="st2"/><line x1="16.25" x2="106.25" y1="96.25" y2="96.25" class="st2"/></g></g></g></switch></svg>