<svg xmlns="http://www.w3.org/2000/svg" xmlns:xlink="http://www.w3.org/1999/xlink" x="0" y="0" version="1.1" viewBox="0 0 120 110" style="enable-background:new 0 0 120 110" xml:space="preserve"><style type="text/css">.st0{fill:#ff5553}.st2{fill:none;stroke:#0033ad;stroke-width:5;stroke-linecap:round;stroke-linejoin:round;stroke-miterlimit:10}</style><switch><g><g id="Government"><g><path d="M15.14,13.75c-1.38-0.08-2.56,0.98-2.64,2.35c-0.08,1.38,0.98,2.56,2.35,2.64c0.05,0,0.1,0,0.14,0 c1.32,0,2.42-1.04,2.49-2.36c0.04-0.67-0.19-1.31-0.63-1.81C16.42,14.09,15.81,13.79,15.14,13.75z" class="st0"/><path d="M25.14,13.75c-1.38-0.08-2.56,0.98-2.64,2.35c-0.08,1.38,0.98,2.56,2.35,2.64c0.05,0,0.1,0,0.14,0 c1.32,0,2.42-1.04,2.49-2.36c0.04-0.67-0.19-1.31-0.63-1.81C26.42,14.09,25.81,13.79,25.14,13.75z" class="st0"/><path d="M35.14,13.75c-1.38-0.08-2.56,0.98-2.64,2.35c-0.08,1.38,0.98,2.56,2.35,2.64c0.05,0,0.1,0,0.14,0 c1.32,0,2.42-1.04,2.49-2.36c0.04-0.67-0.19-1.31-0.63-1.81C36.42,14.09,35.81,13.79,35.14,13.75z" class="st0"/><path d="M45.14,13.75c-1.38-0.08-2.56,0.98-2.64,2.35c-0.08,1.38,0.98,2.56,2.35,2.64c0.05,0,0.1,0,0.14,0 c1.32,0,2.42-1.04,2.49-2.36c0.04-0.67-0.19-1.31-0.63-1.81C46.42,14.09,45.81,13.79,45.14,13.75z" class="st0"/><path d="M55.14,13.75c-1.38-0.08-2.56,0.98-2.64,2.35c-0.08,1.38,0.98,2.56,2.35,2.64c0.05,0,0.1,0,0.14,0 c1.32,0,2.42-1.04,2.49-2.36c0.04-0.67-0.19-1.31-0.63-1.81C56.42,14.09,55.81,13.79,55.14,13.75z" class="st0"/><path d="M65.14,13.75c-1.38-0.08-2.56,0.98-2.64,2.35c-0.08,1.38,0.98,2.56,2.35,2.64c0.05,0,0.1,0,0.14,0 c1.32,0,2.42-1.04,2.49-2.36c0.04-0.67-0.19-1.31-0.63-1.81C66.42,14.09,65.81,13.79,65.14,13.75z" class="st0"/><path d="M75.14,13.75c-1.38-0.08-2.56,0.98-2.64,2.35c-0.08,1.38,0.98,2.56,2.35,2.64c0.05,0,0.1,0,0.14,0 c1.32,0,2.42-1.04,2.49-2.36c0.04-0.67-0.19-1.31-0.63-1.81C76.42,14.09,75.81,13.79,75.14,13.75z" class="st0"/><path d="M85.14,13.75c-1.38-0.08-2.56,0.98-2.64,2.35c-0.08,1.38,0.98,2.56,2.35,2.64c0.05,0,0.1,0,0.14,0 c1.32,0,2.42-1.04,2.49-2.36c0.04-0.67-0.19-1.31-0.63-1.81C86.42,14.09,85.81,13.79,85.14,13.75z" class="st0"/><path d="M95.14,13.75c-1.38-0.08-2.56,0.98-2.64,2.35c-0.08,1.38,0.98,2.56,2.35,2.64c0.05,0,0.1,0,0.14,0 c1.32,0,2.42-1.04,2.49-2.36c0.04-0.67-0.19-1.31-0.63-1.81C96.42,14.09,95.81,13.79,95.14,13.75z" class="st0"/><path d="M105.14,13.75c-1.38-0.08-2.56,0.98-2.64,2.35c-0.08,1.38,0.98,2.56,2.35,2.64c0.05,0,0.1,0,0.14,0 c1.32,0,2.42-1.04,2.49-2.36c0.04-0.67-0.19-1.31-0.63-1.81C106.42,14.09,105.81,13.79,105.14,13.75z" class="st0"/><path d="M15.14,23.75c-1.38-0.08-2.56,0.98-2.64,2.35c-0.08,1.38,0.98,2.56,2.35,2.64c0.05,0,0.1,0,0.14,0 c1.32,0,2.42-1.04,2.49-2.36c0.04-0.67-0.19-1.31-0.63-1.81C16.42,24.09,15.81,23.79,15.14,23.75z" class="st0"/><path d="M25.14,23.75c-1.38-0.08-2.56,0.98-2.64,2.35c-0.08,1.38,0.98,2.56,2.35,2.64c0.05,0,0.1,0,0.14,0 c1.32,0,2.42-1.04,2.49-2.36c0.04-0.67-0.19-1.31-0.63-1.81C26.42,24.09,25.81,23.79,25.14,23.75z" class="st0"/><path d="M35.14,23.75c-1.38-0.08-2.56,0.98-2.64,2.35c-0.08,1.38,0.98,2.56,2.35,2.64c0.05,0,0.1,0,0.14,0 c1.32,0,2.42-1.04,2.49-2.36c0.04-0.67-0.19-1.31-0.63-1.81C36.42,24.09,35.81,23.79,35.14,23.75z" class="st0"/><path d="M85.14,23.75c-1.38-0.08-2.56,0.98-2.64,2.35c-0.08,1.38,0.98,2.56,2.35,2.64c0.05,0,0.1,0,0.14,0 c1.32,0,2.42-1.04,2.49-2.36c0.04-0.67-0.19-1.31-0.63-1.81C86.42,24.09,85.81,23.79,85.14,23.75z" class="st0"/><path d="M95.14,23.75c-1.38-0.08-2.56,0.98-2.64,2.35c-0.08,1.38,0.98,2.56,2.35,2.64c0.05,0,0.1,0,0.14,0 c1.32,0,2.42-1.04,2.49-2.36c0.04-0.67-0.19-1.31-0.63-1.81C96.42,24.09,95.81,23.79,95.14,23.75z" class="st0"/><path d="M105.14,23.75c-1.38-0.08-2.56,0.98-2.64,2.35c-0.08,1.38,0.98,2.56,2.35,2.64c0.05,0,0.1,0,0.14,0 c1.32,0,2.42-1.04,2.49-2.36c0.04-0.67-0.19-1.31-0.63-1.81C106.42,24.09,105.81,23.79,105.14,23.75z" class="st0"/><path d="M15.14,33.75c-1.38-0.08-2.56,0.98-2.64,2.35c-0.08,1.38,0.98,2.56,2.35,2.64c0.05,0,0.1,0,0.14,0 c1.32,0,2.42-1.04,2.49-2.36c0.04-0.67-0.19-1.31-0.63-1.81C16.42,34.09,15.81,33.79,15.14,33.75z" class="st0"/><path d="M105.14,33.75c-1.38-0.08-2.56,0.98-2.64,2.35c-0.08,1.38,0.98,2.56,2.35,2.64c0.05,0,0.1,0,0.14,0 c1.32,0,2.42-1.04,2.49-2.36c0.04-0.67-0.19-1.31-0.63-1.81C106.42,34.09,105.81,33.79,105.14,33.75z" class="st0"/><path d="M15.14,53.75c-1.38-0.08-2.56,0.98-2.64,2.35c-0.08,1.38,0.98,2.56,2.35,2.64c0.05,0,0.1,0,0.14,0 c1.32,0,2.42-1.04,2.49-2.36c0.04-0.67-0.19-1.31-0.63-1.81C16.42,54.09,15.81,53.79,15.14,53.75z" class="st0"/><path d="M45.14,53.75c-1.38-0.08-2.56,0.98-2.64,2.35c-0.08,1.38,0.98,2.56,2.35,2.64c0.05,0,0.1,0,0.14,0 c1.32,0,2.42-1.04,2.49-2.36c0.04-0.67-0.19-1.31-0.63-1.81C46.42,54.09,45.81,53.79,45.14,53.75z" class="st0"/><path d="M75.14,53.75c-1.38-0.08-2.56,0.98-2.64,2.35c-0.08,1.38,0.98,2.56,2.35,2.64c0.05,0,0.1,0,0.14,0 c1.32,0,2.42-1.04,2.49-2.36c0.04-0.67-0.19-1.31-0.63-1.81C76.42,54.09,75.81,53.79,75.14,53.75z" class="st0"/><path d="M105.14,53.75c-1.38-0.08-2.56,0.98-2.64,2.35c-0.08,1.38,0.98,2.56,2.35,2.64c0.05,0,0.1,0,0.14,0 c1.32,0,2.42-1.04,2.49-2.36c0.04-0.67-0.19-1.31-0.63-1.81C106.42,54.09,105.81,53.79,105.14,53.75z" class="st0"/><path d="M15.14,63.75c-1.38-0.08-2.56,0.98-2.64,2.35c-0.08,1.38,0.98,2.56,2.35,2.64c0.05,0,0.1,0,0.14,0 c1.32,0,2.42-1.04,2.49-2.36c0.04-0.67-0.19-1.31-0.63-1.81C16.42,64.09,15.81,63.79,15.14,63.75z" class="st0"/><path d="M45.14,63.75c-1.38-0.08-2.56,0.98-2.64,2.35c-0.08,1.38,0.98,2.56,2.35,2.64c0.05,0,0.1,0,0.14,0 c1.32,0,2.42-1.04,2.49-2.36c0.04-0.67-0.19-1.31-0.63-1.81C46.42,64.09,45.81,63.79,45.14,63.75z" class="st0"/><path d="M75.14,63.75c-1.38-0.08-2.56,0.98-2.64,2.35c-0.08,1.38,0.98,2.56,2.35,2.64c0.05,0,0.1,0,0.14,0 c1.32,0,2.42-1.04,2.49-2.36c0.04-0.67-0.19-1.31-0.63-1.81C76.42,64.09,75.81,63.79,75.14,63.75z" class="st0"/><path d="M105.14,63.75c-1.38-0.08-2.56,0.98-2.64,2.35c-0.08,1.38,0.98,2.56,2.35,2.64c0.05,0,0.1,0,0.14,0 c1.32,0,2.42-1.04,2.49-2.36c0.04-0.67-0.19-1.31-0.63-1.81C106.42,64.09,105.81,63.79,105.14,63.75z" class="st0"/><path d="M15.14,73.75c-1.38-0.08-2.56,0.98-2.64,2.35c-0.08,1.38,0.98,2.56,2.35,2.64c0.05,0,0.1,0,0.14,0 c1.32,0,2.42-1.04,2.49-2.36c0.04-0.67-0.19-1.31-0.63-1.81C16.42,74.09,15.81,73.79,15.14,73.75z" class="st0"/><path d="M45.14,73.75c-1.38-0.08-2.56,0.98-2.64,2.35c-0.08,1.38,0.98,2.56,2.35,2.64c0.05,0,0.1,0,0.14,0 c1.32,0,2.42-1.04,2.49-2.36c0.04-0.67-0.19-1.31-0.63-1.81C46.42,74.09,45.81,73.79,45.14,73.75z" class="st0"/><path d="M75.14,73.75c-1.38-0.08-2.56,0.98-2.64,2.35c-0.08,1.38,0.98,2.56,2.35,2.64c0.05,0,0.1,0,0.14,0 c1.32,0,2.42-1.04,2.49-2.36c0.04-0.67-0.19-1.31-0.63-1.81C76.42,74.09,75.81,73.79,75.14,73.75z" class="st0"/><path d="M105.14,73.75c-1.38-0.08-2.56,0.98-2.64,2.35c-0.08,1.38,0.98,2.56,2.35,2.64c0.05,0,0.1,0,0.14,0 c1.32,0,2.42-1.04,2.49-2.36c0.04-0.67-0.19-1.31-0.63-1.81C106.42,74.09,105.81,73.79,105.14,73.75z" class="st0"/><rect width="10" height="40" x="25" y="46.25" class="st2"/><polyline points="35 46.25 25 46.25 25 86.25" class="st2"/><rect width="10" height="40" x="55" y="46.25" class="st2"/><polyline points="65 46.25 55 46.25 55 86.25" class="st2"/><rect width="10" height="40" x="85" y="46.25" class="st2"/><polyline points="95 46.25 85 46.25 85 86.25" class="st2"/><rect width="90" height="10" x="15" y="86.25" class="st2"/><polygon points="15 46.25 105 46.25 95 36.25 24.41 36.25" class="st2"/><polygon points="45 26.25 35 36.25 85 36.25 75 26.25" class="st2"/></g></g></g></switch></svg>