<svg xmlns="http://www.w3.org/2000/svg" xmlns:xlink="http://www.w3.org/1999/xlink" x="0" y="0" version="1.1" viewBox="0 0 120 110" style="enable-background:new 0 0 120 110" xml:space="preserve"><style type="text/css">.st0{fill:#ff5553}.st2{fill:none;stroke:#0033ad;stroke-width:5;stroke-linecap:round;stroke-linejoin:round;stroke-miterlimit:10}</style><switch><g><g id="Retail_2"><g><path d="M15.14,12.5c-1.38-0.08-2.56,0.98-2.64,2.35c-0.08,1.38,0.98,2.56,2.35,2.64c0.05,0,0.1,0,0.14,0 c1.32,0,2.42-1.04,2.49-2.36c0.04-0.67-0.19-1.31-0.63-1.81C16.42,12.84,15.81,12.54,15.14,12.5z" class="st0"/><path d="M25.14,12.5c-1.38-0.08-2.56,0.98-2.64,2.35c-0.08,1.38,0.98,2.56,2.35,2.64c0.05,0,0.1,0,0.14,0 c1.32,0,2.42-1.04,2.49-2.36c0.04-0.67-0.19-1.31-0.63-1.81C26.42,12.84,25.81,12.54,25.14,12.5z" class="st0"/><path d="M35.14,12.5c-1.38-0.08-2.56,0.98-2.64,2.35c-0.08,1.38,0.98,2.56,2.35,2.64c0.05,0,0.1,0,0.14,0 c1.32,0,2.42-1.04,2.49-2.36c0.04-0.67-0.19-1.31-0.63-1.81C36.42,12.84,35.81,12.54,35.14,12.5z" class="st0"/><path d="M45.14,12.5c-1.38-0.08-2.56,0.98-2.64,2.35c-0.08,1.38,0.98,2.56,2.35,2.64c0.05,0,0.1,0,0.14,0 c1.32,0,2.42-1.04,2.49-2.36c0.04-0.67-0.19-1.31-0.63-1.81C46.42,12.84,45.81,12.54,45.14,12.5z" class="st0"/><path d="M55.14,12.5c-1.38-0.08-2.56,0.98-2.64,2.35c-0.08,1.38,0.98,2.56,2.35,2.64c0.05,0,0.1,0,0.14,0 c1.32,0,2.42-1.04,2.49-2.36c0.04-0.67-0.19-1.31-0.63-1.81C56.42,12.84,55.81,12.54,55.14,12.5z" class="st0"/><path d="M65.14,12.5c-1.38-0.08-2.56,0.98-2.64,2.35c-0.08,1.38,0.98,2.56,2.35,2.64c0.05,0,0.1,0,0.14,0 c1.32,0,2.42-1.04,2.49-2.36c0.04-0.67-0.19-1.31-0.63-1.81C66.42,12.84,65.81,12.54,65.14,12.5z" class="st0"/><path d="M75.14,12.5c-1.38-0.08-2.56,0.98-2.64,2.35c-0.08,1.38,0.98,2.56,2.35,2.64c0.05,0,0.1,0,0.14,0 c1.32,0,2.42-1.04,2.49-2.36c0.04-0.67-0.19-1.31-0.63-1.81C76.42,12.84,75.81,12.54,75.14,12.5z" class="st0"/><path d="M85.14,12.5c-1.38-0.08-2.56,0.98-2.64,2.35c-0.08,1.38,0.98,2.56,2.35,2.64c0.05,0,0.1,0,0.14,0 c1.32,0,2.42-1.04,2.49-2.36c0.04-0.67-0.19-1.31-0.63-1.81C86.42,12.84,85.81,12.54,85.14,12.5z" class="st0"/><path d="M95.14,12.5c-1.38-0.08-2.56,0.98-2.64,2.35c-0.08,1.38,0.98,2.56,2.35,2.64c0.05,0,0.1,0,0.14,0 c1.32,0,2.42-1.04,2.49-2.36c0.04-0.67-0.19-1.31-0.63-1.81C96.42,12.84,95.81,12.54,95.14,12.5z" class="st0"/><path d="M105.14,12.5c-1.38-0.08-2.56,0.98-2.64,2.35c-0.08,1.38,0.98,2.56,2.35,2.64c0.05,0,0.1,0,0.14,0 c1.32,0,2.42-1.04,2.49-2.36c0.04-0.67-0.19-1.31-0.63-1.81C106.42,12.84,105.81,12.54,105.14,12.5z" class="st0"/><path d="M15.14,32.5c-1.38-0.08-2.56,0.98-2.64,2.35c-0.08,1.38,0.98,2.56,2.35,2.64c0.05,0,0.1,0,0.14,0 c1.32,0,2.42-1.04,2.49-2.36c0.04-0.67-0.19-1.31-0.63-1.81C16.42,32.84,15.81,32.54,15.14,32.5z" class="st0"/><path d="M15.14,42.5c-1.38-0.08-2.56,0.98-2.64,2.35c-0.08,1.38,0.98,2.56,2.35,2.64c0.05,0,0.1,0,0.14,0 c1.32,0,2.42-1.04,2.49-2.36c0.04-0.67-0.19-1.31-0.63-1.81C16.42,42.84,15.81,42.54,15.14,42.5z" class="st0"/><path d="M15.14,52.5c-1.38-0.08-2.56,0.98-2.64,2.35c-0.08,1.38,0.98,2.56,2.35,2.64c0.05,0,0.1,0,0.14,0 c1.32,0,2.42-1.04,2.49-2.36c0.04-0.67-0.19-1.31-0.63-1.81C16.42,52.84,15.81,52.54,15.14,52.5z" class="st0"/><path d="M15.14,62.5c-1.38-0.08-2.56,0.98-2.64,2.35c-0.08,1.38,0.98,2.56,2.35,2.64c0.05,0,0.1,0,0.14,0 c1.32,0,2.42-1.04,2.49-2.36c0.04-0.67-0.19-1.31-0.63-1.81C16.42,62.84,15.81,62.54,15.14,62.5z" class="st0"/><path d="M105.14,62.5c-1.38-0.08-2.56,0.98-2.64,2.35c-0.08,1.38,0.98,2.56,2.35,2.64c0.05,0,0.1,0,0.14,0 c1.32,0,2.42-1.04,2.49-2.36c0.04-0.67-0.19-1.31-0.63-1.81C106.42,62.84,105.81,62.54,105.14,62.5z" class="st0"/><path d="M15.14,72.5c-1.38-0.08-2.56,0.98-2.64,2.35c-0.08,1.38,0.98,2.56,2.35,2.64c0.05,0,0.1,0,0.14,0 c1.32,0,2.42-1.04,2.49-2.36c0.04-0.67-0.19-1.31-0.63-1.81C16.42,72.84,15.81,72.54,15.14,72.5z" class="st0"/><path d="M95.14,72.5c-1.38-0.08-2.56,0.98-2.64,2.35c-0.08,1.38,0.98,2.56,2.35,2.64c0.05,0,0.1,0,0.14,0 c1.32,0,2.42-1.04,2.49-2.36c0.04-0.67-0.19-1.31-0.63-1.81C96.42,72.84,95.81,72.54,95.14,72.5z" class="st0"/><path d="M105.14,72.5c-1.38-0.08-2.56,0.98-2.64,2.35c-0.08,1.38,0.98,2.56,2.35,2.64c0.05,0,0.1,0,0.14,0 c1.32,0,2.42-1.04,2.49-2.36c0.04-0.67-0.19-1.31-0.63-1.81C106.42,72.84,105.81,72.54,105.14,72.5z" class="st0"/><path d="M15.14,82.5c-1.38-0.08-2.56,0.98-2.64,2.35c-0.08,1.38,0.98,2.56,2.35,2.64c0.05,0,0.1,0,0.14,0 c1.32,0,2.42-1.04,2.49-2.36c0.04-0.67-0.19-1.31-0.63-1.81C16.42,82.84,15.81,82.54,15.14,82.5z" class="st0"/><path d="M105.14,82.5c-1.38-0.08-2.56,0.98-2.64,2.35c-0.08,1.38,0.98,2.56,2.35,2.64c0.05,0,0.1,0,0.14,0 c1.32,0,2.42-1.04,2.49-2.36c0.04-0.67-0.19-1.31-0.63-1.81C106.42,82.84,105.81,82.54,105.14,82.5z" class="st0"/><path d="M15.14,92.5c-1.38-0.08-2.56,0.98-2.64,2.35c-0.08,1.38,0.98,2.56,2.35,2.64c0.05,0,0.1,0,0.14,0 c1.32,0,2.42-1.04,2.49-2.36c0.04-0.67-0.19-1.31-0.63-1.81C16.42,92.84,15.81,92.54,15.14,92.5z" class="st0"/><path d="M25.14,92.5c-1.38-0.08-2.56,0.98-2.64,2.35c-0.08,1.38,0.98,2.56,2.35,2.64c0.05,0,0.1,0,0.14,0 c1.32,0,2.42-1.04,2.49-2.36c0.04-0.67-0.19-1.31-0.63-1.81C26.42,92.84,25.81,92.54,25.14,92.5z" class="st0"/><path d="M55.14,92.5c-1.38-0.08-2.56,0.98-2.64,2.35c-0.08,1.38,0.98,2.56,2.35,2.64c0.05,0,0.1,0,0.14,0 c1.32,0,2.42-1.04,2.49-2.36c0.04-0.67-0.19-1.31-0.63-1.81C56.42,92.84,55.81,92.54,55.14,92.5z" class="st0"/><path d="M65.14,92.5c-1.38-0.08-2.56,0.98-2.64,2.35c-0.08,1.38,0.98,2.56,2.35,2.64c0.05,0,0.1,0,0.14,0 c1.32,0,2.42-1.04,2.49-2.36c0.04-0.67-0.19-1.31-0.63-1.81C66.42,92.84,65.81,92.54,65.14,92.5z" class="st0"/><path d="M95.14,92.5c-1.38-0.08-2.56,0.98-2.64,2.35c-0.08,1.38,0.98,2.56,2.35,2.64c0.05,0,0.1,0,0.14,0 c1.32,0,2.42-1.04,2.49-2.36c0.04-0.67-0.19-1.31-0.63-1.81C96.42,92.84,95.81,92.54,95.14,92.5z" class="st0"/><path d="M105.14,92.5c-1.38-0.08-2.56,0.98-2.64,2.35c-0.08,1.38,0.98,2.56,2.35,2.64c0.05,0,0.1,0,0.14,0 c1.32,0,2.42-1.04,2.49-2.36c0.04-0.67-0.19-1.31-0.63-1.81C106.42,92.84,105.81,92.54,105.14,92.5z" class="st0"/><polyline points="15 25 25 25 25 45 25 75 85 75 105 55 105 25 35 25 35 65 35 75" class="st2"/><polyline points="95 85 25 85 25 75" class="st2"/><polyline points="35 85 35 95 45 95 45 85" class="st2"/><rect width="10" height="10" x="75" y="85" class="st2"/><line x1="35" x2="105" y1="35" y2="35" class="st2"/><line x1="35" x2="105" y1="45" y2="45" class="st2"/><line x1="35" x2="105" y1="55" y2="55" class="st2"/><line x1="35" x2="95" y1="65" y2="65" class="st2"/></g></g></g></switch></svg>